<?xml version="1.0" encoding="UTF-8"?><svg xmlns="http://www.w3.org/2000/svg" xmlns:xlink="http://www.w3.org/1999/xlink" fill-opacity="1" color-rendering="auto" color-interpolation="auto" text-rendering="auto" stroke="black" stroke-linecap="square" width="1488" stroke-miterlimit="10" shape-rendering="auto" stroke-opacity="1" fill="black" stroke-dasharray="none" font-weight="normal" stroke-width="1" height="684" font-family="'Dialog'" font-style="normal" stroke-linejoin="miter" font-size="12px" stroke-dashoffset="0" image-rendering="auto">
  <!--Generated by ySVG 2.5-->
  <defs id="genericDefs"/>
  <g>
    <defs id="defs1">
      <clipPath clipPathUnits="userSpaceOnUse" id="clipPath1">
        <path d="M0 0 L1488 0 L1488 684 L0 684 L0 0 Z"/>
      </clipPath>
      <clipPath clipPathUnits="userSpaceOnUse" id="clipPath2">
        <path d="M-292 -173 L1196 -173 L1196 511 L-292 511 L-292 -173 Z"/>
      </clipPath>
    </defs>
    <g fill="yellow" text-rendering="geometricPrecision" shape-rendering="geometricPrecision" transform="matrix(1,0,0,1,292,173)" stroke="yellow">
      <rect x="891.3163" y="195.397" clip-path="url(#clipPath2)" width="118.9682" rx="4" ry="4" height="44" stroke="none"/>
    </g>
    <g font-size="16px" stroke-linecap="butt" transform="matrix(1,0,0,1,292,173)" text-rendering="geometricPrecision" font-family="sans-serif" shape-rendering="geometricPrecision" stroke-miterlimit="1.45">
      <text x="902.1754" xml:space="preserve" y="223.4439" clip-path="url(#clipPath2)" stroke="none">time:Interval</text>
      <rect x="891.3163" y="195.397" clip-path="url(#clipPath2)" fill="none" width="118.9682" rx="4" ry="4" height="44"/>
    </g>
    <g fill="yellow" text-rendering="geometricPrecision" shape-rendering="geometricPrecision" transform="matrix(1,0,0,1,292,173)" stroke="yellow">
      <rect x="862.3163" y="306.397" clip-path="url(#clipPath2)" width="176.9682" rx="4" ry="4" height="44" stroke="none"/>
    </g>
    <g font-size="16px" stroke-linecap="butt" transform="matrix(1,0,0,1,292,173)" text-rendering="geometricPrecision" font-family="sans-serif" shape-rendering="geometricPrecision" stroke-miterlimit="1.45">
      <text x="876.8004" xml:space="preserve" y="334.4439" clip-path="url(#clipPath2)" stroke="none">time:ProperInterval</text>
      <rect x="862.3163" y="306.397" clip-path="url(#clipPath2)" fill="none" width="176.9682" rx="4" ry="4" height="44"/>
    </g>
    <g fill="yellow" text-rendering="geometricPrecision" shape-rendering="geometricPrecision" transform="matrix(1,0,0,1,292,173)" stroke="yellow">
      <rect x="719.3163" y="451.397" clip-path="url(#clipPath2)" width="253.9682" rx="4" ry="4" height="44" stroke="none"/>
    </g>
    <g font-size="16px" stroke-linecap="butt" transform="matrix(1,0,0,1,292,173)" text-rendering="geometricPrecision" font-family="sans-serif" shape-rendering="geometricPrecision" stroke-miterlimit="1.45">
      <text x="735.3395" xml:space="preserve" y="479.4439" clip-path="url(#clipPath2)" stroke="none">edtfo:OpenBeginningInterval</text>
      <rect x="719.3163" y="451.397" clip-path="url(#clipPath2)" fill="none" width="253.9682" rx="4" ry="4" height="44"/>
    </g>
    <g fill="yellow" text-rendering="geometricPrecision" shape-rendering="geometricPrecision" transform="matrix(1,0,0,1,292,173)" stroke="yellow">
      <rect x="982.3163" y="451.397" clip-path="url(#clipPath2)" width="197.9682" rx="4" ry="4" height="44" stroke="none"/>
    </g>
    <g font-size="16px" stroke-linecap="butt" transform="matrix(1,0,0,1,292,173)" text-rendering="geometricPrecision" font-family="sans-serif" shape-rendering="geometricPrecision" stroke-miterlimit="1.45">
      <text x="994.5582" xml:space="preserve" y="479.4439" clip-path="url(#clipPath2)" stroke="none">edtfo:OpenEndInterval</text>
      <rect x="982.3163" y="451.397" clip-path="url(#clipPath2)" fill="none" width="197.9682" rx="4" ry="4" height="44"/>
    </g>
    <g fill="yellow" text-rendering="geometricPrecision" shape-rendering="geometricPrecision" transform="matrix(1,0,0,1,292,173)" stroke="yellow">
      <rect x="891.3163" y="-106.603" clip-path="url(#clipPath2)" width="118.9682" rx="4" ry="4" height="44" stroke="none"/>
    </g>
    <g font-size="16px" stroke-linecap="butt" transform="matrix(1,0,0,1,292,173)" text-rendering="geometricPrecision" font-family="sans-serif" shape-rendering="geometricPrecision" stroke-miterlimit="1.45">
      <text x="904.3239" xml:space="preserve" y="-78.5561" clip-path="url(#clipPath2)" stroke="none">time:Instant</text>
      <rect x="891.3163" y="-106.603" clip-path="url(#clipPath2)" fill="none" width="118.9682" rx="4" ry="4" height="44"/>
    </g>
    <g fill="rgb(204,255,204)" text-rendering="geometricPrecision" shape-rendering="geometricPrecision" transform="matrix(1,0,0,1,292,173)" stroke="rgb(204,255,204)">
      <path d="M900.3624 44.897 L1013.8479 44.897 L1001.2384 87.897 L887.7529 87.897 Z" fill-rule="evenodd" clip-path="url(#clipPath2)" stroke="none"/>
    </g>
    <g font-size="16px" stroke-linecap="butt" transform="matrix(1,0,0,1,292,173)" text-rendering="geometricPrecision" font-family="sans-serif" shape-rendering="geometricPrecision" stroke-miterlimit="1.45">
      <text x="913.1676" xml:space="preserve" y="72.4439" clip-path="url(#clipPath2)" stroke="none">edtf:EDTF</text>
      <path fill="none" d="M900.3624 44.897 L1013.8479 44.897 L1001.2384 87.897 L887.7529 87.897 Z" fill-rule="evenodd" clip-path="url(#clipPath2)"/>
    </g>
    <g fill="yellow" text-rendering="geometricPrecision" shape-rendering="geometricPrecision" transform="matrix(1,0,0,1,292,173)" stroke="yellow">
      <rect x="-233.9609" y="97.7566" clip-path="url(#clipPath2)" width="224.9682" rx="4" ry="4" height="44" stroke="none"/>
    </g>
    <g font-size="16px" stroke-linecap="butt" transform="matrix(1,0,0,1,292,173)" text-rendering="geometricPrecision" font-family="sans-serif" shape-rendering="geometricPrecision" stroke-miterlimit="1.45">
      <text x="-222.8244" xml:space="preserve" y="125.8035" clip-path="url(#clipPath2)" stroke="none">time:DateTimeDescription</text>
      <rect x="-233.9609" y="97.7566" clip-path="url(#clipPath2)" fill="none" width="224.9682" rx="4" ry="4" height="44"/>
    </g>
    <g fill="yellow" text-rendering="geometricPrecision" shape-rendering="geometricPrecision" transform="matrix(1,0,0,1,292,173)" stroke="yellow">
      <rect x="424.983" y="44.397" clip-path="url(#clipPath2)" width="97.9682" rx="4" ry="4" height="44" stroke="none"/>
    </g>
    <g font-size="16px" stroke-linecap="butt" transform="matrix(1,0,0,1,292,173)" text-rendering="geometricPrecision" font-family="sans-serif" shape-rendering="geometricPrecision" stroke-miterlimit="1.45">
      <text x="437.6234" xml:space="preserve" y="72.4439" clip-path="url(#clipPath2)" stroke="none">owl:Class</text>
      <rect x="424.983" y="44.397" clip-path="url(#clipPath2)" fill="none" width="97.9682" rx="4" ry="4" height="44"/>
    </g>
    <g fill="yellow" text-rendering="geometricPrecision" shape-rendering="geometricPrecision" transform="matrix(1,0,0,1,292,173)" stroke="yellow">
      <rect x="-266.3052" y="302.1162" clip-path="url(#clipPath2)" width="289.6568" rx="4" ry="4" height="44" stroke="none"/>
    </g>
    <g font-size="16px" stroke-linecap="butt" transform="matrix(1,0,0,1,292,173)" text-rendering="geometricPrecision" font-family="sans-serif" shape-rendering="geometricPrecision" stroke-miterlimit="1.45">
      <text x="-257.3752" xml:space="preserve" y="330.1631" clip-path="url(#clipPath2)" stroke="none">edtfo:SubYearDateTimeDescription</text>
      <rect x="-266.3052" y="302.1162" clip-path="url(#clipPath2)" fill="none" width="289.6568" rx="4" ry="4" height="44"/>
    </g>
    <g fill="yellow" text-rendering="geometricPrecision" shape-rendering="geometricPrecision" transform="matrix(1,0,0,1,292,173)" stroke="yellow">
      <rect x="611.1578" y="229.1523" clip-path="url(#clipPath2)" width="138.2463" rx="4" ry="4" height="44" stroke="none"/>
    </g>
    <g font-size="16px" stroke-linecap="butt" transform="matrix(1,0,0,1,292,173)" text-rendering="geometricPrecision" font-family="sans-serif" shape-rendering="geometricPrecision" stroke-miterlimit="1.45">
      <text x="619.6443" xml:space="preserve" y="257.1992" clip-path="url(#clipPath2)" stroke="none">edtfo:Semestral</text>
      <rect x="611.1578" y="229.1523" clip-path="url(#clipPath2)" fill="none" width="138.2463" rx="4" ry="4" height="44"/>
    </g>
    <g fill="yellow" text-rendering="geometricPrecision" shape-rendering="geometricPrecision" transform="matrix(1,0,0,1,292,173)" stroke="yellow">
      <rect x="244.3818" y="302.1162" clip-path="url(#clipPath2)" width="176.9682" rx="4" ry="4" height="44" stroke="none"/>
    </g>
    <g font-size="16px" stroke-linecap="butt" transform="matrix(1,0,0,1,292,173)" text-rendering="geometricPrecision" font-family="sans-serif" shape-rendering="geometricPrecision" stroke-miterlimit="1.45">
      <text x="248.4831" xml:space="preserve" y="330.1631" clip-path="url(#clipPath2)" stroke="none">edtfo:YearSubdivision</text>
      <rect x="244.3818" y="302.1162" clip-path="url(#clipPath2)" fill="none" width="176.9682" rx="4" ry="4" height="44"/>
    </g>
    <g fill="yellow" text-rendering="geometricPrecision" shape-rendering="geometricPrecision" transform="matrix(1,0,0,1,292,173)" stroke="yellow">
      <rect x="611.1578" y="278.5672" clip-path="url(#clipPath2)" width="176.9682" rx="4" ry="4" height="44" stroke="none"/>
    </g>
    <g font-size="16px" stroke-linecap="butt" transform="matrix(1,0,0,1,292,173)" text-rendering="geometricPrecision" font-family="sans-serif" shape-rendering="geometricPrecision" stroke-miterlimit="1.45">
      <text x="623.8255" xml:space="preserve" y="306.6141" clip-path="url(#clipPath2)" stroke="none">edtfo:Quadrimester</text>
      <rect x="611.1578" y="278.5672" clip-path="url(#clipPath2)" fill="none" width="176.9682" rx="4" ry="4" height="44"/>
    </g>
    <g fill="yellow" text-rendering="geometricPrecision" shape-rendering="geometricPrecision" transform="matrix(1,0,0,1,292,173)" stroke="yellow">
      <rect x="611.1578" y="327.9821" clip-path="url(#clipPath2)" width="126.095" rx="4" ry="4" height="44" stroke="none"/>
    </g>
    <g font-size="16px" stroke-linecap="butt" transform="matrix(1,0,0,1,292,173)" text-rendering="geometricPrecision" font-family="sans-serif" shape-rendering="geometricPrecision" stroke-miterlimit="1.45">
      <text x="621.7405" xml:space="preserve" y="356.029" clip-path="url(#clipPath2)" stroke="none">edtfo:Quarter</text>
      <rect x="611.1578" y="327.9821" clip-path="url(#clipPath2)" fill="none" width="126.095" rx="4" ry="4" height="44"/>
    </g>
    <g fill="yellow" text-rendering="geometricPrecision" shape-rendering="geometricPrecision" transform="matrix(1,0,0,1,292,173)" stroke="yellow">
      <rect x="614.7212" y="377.397" clip-path="url(#clipPath2)" width="118.9682" rx="4" ry="4" height="44" stroke="none"/>
    </g>
    <g font-size="16px" stroke-linecap="butt" transform="matrix(1,0,0,1,292,173)" text-rendering="geometricPrecision" font-family="sans-serif" shape-rendering="geometricPrecision" stroke-miterlimit="1.45">
      <text x="624.1936" xml:space="preserve" y="405.4439" clip-path="url(#clipPath2)" stroke="none">edtfo:Season</text>
      <rect x="614.7212" y="377.397" clip-path="url(#clipPath2)" fill="none" width="118.9682" rx="4" ry="4" height="44"/>
    </g>
    <g fill="yellow" text-rendering="geometricPrecision" shape-rendering="geometricPrecision" transform="matrix(1,0,0,1,292,173)" stroke="yellow">
      <rect x="-276.3897" y="-106.603" clip-path="url(#clipPath2)" width="309.8259" rx="4" ry="4" height="44" stroke="none"/>
    </g>
    <g font-size="16px" stroke-linecap="butt" transform="matrix(1,0,0,1,292,173)" text-rendering="geometricPrecision" font-family="sans-serif" shape-rendering="geometricPrecision" stroke-miterlimit="1.45">
      <text x="-265.1057" xml:space="preserve" y="-78.5561" clip-path="url(#clipPath2)" stroke="none">edtfo:SuperYearDateTimeDescription</text>
      <rect x="-276.3897" y="-106.603" clip-path="url(#clipPath2)" fill="none" width="309.8259" rx="4" ry="4" height="44"/>
    </g>
    <g fill="yellow" text-rendering="geometricPrecision" shape-rendering="geometricPrecision" transform="matrix(1,0,0,1,292,173)" stroke="yellow">
      <rect x="232.0269" y="-157.7037" clip-path="url(#clipPath2)" width="224.9682" rx="4" ry="4" height="44" stroke="none"/>
    </g>
    <g font-size="16px" stroke-linecap="butt" transform="matrix(1,0,0,1,292,173)" text-rendering="geometricPrecision" font-family="sans-serif" shape-rendering="geometricPrecision" stroke-miterlimit="1.45">
      <text x="248.7532" xml:space="preserve" y="-129.6568" clip-path="url(#clipPath2)" stroke="none">edtfo:DecadeDescription</text>
      <rect x="232.0269" y="-157.7037" clip-path="url(#clipPath2)" fill="none" width="224.9682" rx="4" ry="4" height="44"/>
    </g>
    <g fill="yellow" text-rendering="geometricPrecision" shape-rendering="geometricPrecision" transform="matrix(1,0,0,1,292,173)" stroke="yellow">
      <rect x="232.0269" y="-106.603" clip-path="url(#clipPath2)" width="224.9682" rx="4" ry="4" height="44" stroke="none"/>
    </g>
    <g font-size="16px" stroke-linecap="butt" transform="matrix(1,0,0,1,292,173)" text-rendering="geometricPrecision" font-family="sans-serif" shape-rendering="geometricPrecision" stroke-miterlimit="1.45">
      <text x="246.8431" xml:space="preserve" y="-78.5561" clip-path="url(#clipPath2)" stroke="none">edtfo:CenturyDescription</text>
      <rect x="232.0269" y="-106.603" clip-path="url(#clipPath2)" fill="none" width="224.9682" rx="4" ry="4" height="44"/>
    </g>
    <g fill="yellow" text-rendering="geometricPrecision" shape-rendering="geometricPrecision" transform="matrix(1,0,0,1,292,173)" stroke="yellow">
      <rect x="232.0269" y="-55.5022" clip-path="url(#clipPath2)" width="253.9682" rx="4" ry="4" height="44" stroke="none"/>
    </g>
    <g font-size="16px" stroke-linecap="butt" transform="matrix(1,0,0,1,292,173)" text-rendering="geometricPrecision" font-family="sans-serif" shape-rendering="geometricPrecision" stroke-miterlimit="1.45">
      <text x="248.7493" xml:space="preserve" y="-27.4554" clip-path="url(#clipPath2)" stroke="none">edtfo:MillenniumDescription</text>
      <rect x="232.0269" y="-55.5022" clip-path="url(#clipPath2)" fill="none" width="253.9682" rx="4" ry="4" height="44"/>
    </g>
    <g fill="rgb(204,255,204)" text-rendering="geometricPrecision" shape-rendering="geometricPrecision" transform="matrix(1,0,0,1,292,173)" stroke="rgb(204,255,204)">
      <path d="M702.5114 -106.103 L815.9968 -106.103 L803.3873 -63.103 L689.9019 -63.103 Z" fill-rule="evenodd" clip-path="url(#clipPath2)" stroke="none"/>
    </g>
    <g font-size="16px" stroke-linecap="butt" transform="matrix(1,0,0,1,292,173)" text-rendering="geometricPrecision" font-family="sans-serif" shape-rendering="geometricPrecision" stroke-miterlimit="1.45">
      <text x="708.9532" xml:space="preserve" y="-78.5561" clip-path="url(#clipPath2)" stroke="none">xsd:integer</text>
      <path fill="none" d="M702.5114 -106.103 L815.9968 -106.103 L803.3873 -63.103 L689.9019 -63.103 Z" fill-rule="evenodd" clip-path="url(#clipPath2)"/>
    </g>
    <g fill="yellow" text-rendering="geometricPrecision" shape-rendering="geometricPrecision" transform="matrix(1,0,0,1,292,173)" stroke="yellow">
      <rect x="171.7153" y="18.323" clip-path="url(#clipPath2)" width="138.2463" rx="4" ry="4" height="44" stroke="none"/>
    </g>
    <g font-size="16px" stroke-linecap="butt" transform="matrix(1,0,0,1,292,173)" text-rendering="geometricPrecision" font-family="sans-serif" shape-rendering="geometricPrecision" stroke-miterlimit="1.45">
      <text x="188.0064" xml:space="preserve" y="46.3698" clip-path="url(#clipPath2)" stroke="none">rdf:Statement</text>
      <rect x="171.7153" y="18.323" clip-path="url(#clipPath2)" fill="none" width="138.2463" rx="4" ry="4" height="44"/>
    </g>
    <g fill="yellow" text-rendering="geometricPrecision" shape-rendering="geometricPrecision" transform="matrix(1,0,0,1,292,173)" stroke="yellow">
      <rect x="128.3544" y="109.1297" clip-path="url(#clipPath2)" width="224.9682" rx="4" ry="4" height="44" stroke="none"/>
    </g>
    <g font-size="16px" stroke-linecap="butt" transform="matrix(1,0,0,1,292,173)" text-rendering="geometricPrecision" font-family="sans-serif" shape-rendering="geometricPrecision" stroke-miterlimit="1.45">
      <text x="143.9478" xml:space="preserve" y="137.1766" clip-path="url(#clipPath2)" stroke="none">edtfo:QualifiedStatement</text>
      <rect x="128.3544" y="109.1297" clip-path="url(#clipPath2)" fill="none" width="224.9682" rx="4" ry="4" height="44"/>
    </g>
    <g fill="yellow" text-rendering="geometricPrecision" shape-rendering="geometricPrecision" transform="matrix(1,0,0,1,292,173)" stroke="yellow">
      <rect x="0.0351" y="199.9364" clip-path="url(#clipPath2)" width="224.9682" rx="4" ry="4" height="44" stroke="none"/>
    </g>
    <g font-size="16px" stroke-linecap="butt" transform="matrix(1,0,0,1,292,173)" text-rendering="geometricPrecision" font-family="sans-serif" shape-rendering="geometricPrecision" stroke-miterlimit="1.45">
      <text x="13.5739" xml:space="preserve" y="227.9833" clip-path="url(#clipPath2)" stroke="none">edtfo:UncertainStatement</text>
      <rect x="0.0351" y="199.9364" clip-path="url(#clipPath2)" fill="none" width="224.9682" rx="4" ry="4" height="44"/>
    </g>
    <g fill="yellow" text-rendering="geometricPrecision" shape-rendering="geometricPrecision" transform="matrix(1,0,0,1,292,173)" stroke="yellow">
      <rect x="255.0033" y="199.9364" clip-path="url(#clipPath2)" width="253.9682" rx="4" ry="4" height="44" stroke="none"/>
    </g>
    <g font-size="16px" stroke-linecap="butt" transform="matrix(1,0,0,1,292,173)" text-rendering="geometricPrecision" font-family="sans-serif" shape-rendering="geometricPrecision" stroke-miterlimit="1.45">
      <text x="269.7335" xml:space="preserve" y="227.9833" clip-path="url(#clipPath2)" stroke="none">edtfo:ApproximateStatement</text>
      <rect x="255.0033" y="199.9364" clip-path="url(#clipPath2)" fill="none" width="253.9682" rx="4" ry="4" height="44"/>
      <path fill="none" d="M950.8004 306.4193 L950.8004 247.4353" clip-path="url(#clipPath2)"/>
      <path d="M950.8004 239.4353 L945.8004 251.4353 L950.8004 248.4353 L955.8004 251.4353 Z" stroke="none" clip-path="url(#clipPath2)"/>
    </g>
    <g stroke-linecap="butt" transform="matrix(1,0,0,1,292,173)" fill="white" text-rendering="geometricPrecision" shape-rendering="geometricPrecision" stroke="white" stroke-miterlimit="1.45">
      <rect x="887.2848" width="127.0312" height="22.8438" y="261.4752" clip-path="url(#clipPath2)" stroke="none"/>
    </g>
    <g font-size="16px" stroke-linecap="butt" transform="matrix(1,0,0,1,292,173)" text-rendering="geometricPrecision" font-family="sans-serif" shape-rendering="geometricPrecision" stroke-miterlimit="1.45">
      <text x="889.2848" xml:space="preserve" y="278.9439" clip-path="url(#clipPath2)" stroke="none">rdfs:subClassOf</text>
      <path fill="none" d="M846.3004 451.3741 L846.3004 420.397 L919.819 355.6726" clip-path="url(#clipPath2)"/>
      <path d="M925.8235 350.3863 L913.5127 354.563 L919.0684 356.3334 L920.1207 362.0687 Z" stroke="none" clip-path="url(#clipPath2)"/>
    </g>
    <g stroke-linecap="butt" transform="matrix(1,0,0,1,292,173)" fill="white" text-rendering="geometricPrecision" shape-rendering="geometricPrecision" stroke="white" stroke-miterlimit="1.45">
      <rect x="817.3578" width="127.0312" height="22.8438" y="378.5377" clip-path="url(#clipPath2)" stroke="none"/>
    </g>
    <g font-size="16px" stroke-linecap="butt" transform="matrix(1,0,0,1,292,173)" text-rendering="geometricPrecision" font-family="sans-serif" shape-rendering="geometricPrecision" stroke-miterlimit="1.45">
      <text x="819.3578" xml:space="preserve" y="396.0064" clip-path="url(#clipPath2)" stroke="none">rdfs:subClassOf</text>
      <path fill="none" d="M1081.3004 451.4332 L1081.3004 419.397 L988.9362 354.9898" clip-path="url(#clipPath2)"/>
      <path d="M982.374 350.4139 L989.3572 361.3791 L989.7564 355.5618 L995.0771 353.1764 Z" stroke="none" clip-path="url(#clipPath2)"/>
    </g>
    <g stroke-linecap="butt" transform="matrix(1,0,0,1,292,173)" fill="white" text-rendering="geometricPrecision" shape-rendering="geometricPrecision" stroke="white" stroke-miterlimit="1.45">
      <rect x="974.8525" width="127.0312" height="22.8438" y="378.0377" clip-path="url(#clipPath2)" stroke="none"/>
    </g>
    <g font-size="16px" stroke-linecap="butt" transform="matrix(1,0,0,1,292,173)" text-rendering="geometricPrecision" font-family="sans-serif" shape-rendering="geometricPrecision" stroke-miterlimit="1.45">
      <text x="976.8525" xml:space="preserve" y="395.5064" clip-path="url(#clipPath2)" stroke="none">rdfs:subClassOf</text>
    </g>
    <g stroke-linecap="butt" transform="matrix(1,0,0,1,292,173)" fill="green" text-rendering="geometricPrecision" shape-rendering="geometricPrecision" stroke="green" stroke-miterlimit="1.45">
      <path fill="none" d="M950.8004 191.3885 L950.8004 102.9061" clip-path="url(#clipPath2)"/>
    </g>
    <g stroke-linecap="butt" transform="matrix(1,0,0,1,292,173)" fill-opacity="0" fill="rgb(0,0,0)" text-rendering="geometricPrecision" shape-rendering="geometricPrecision" stroke="rgb(0,0,0)" stroke-opacity="0" stroke-miterlimit="1.45">
      <path d="M950.8004 199.3885 C948.5912 199.3885 946.8004 197.5976 946.8004 195.3885 C946.8004 193.1794 948.5912 191.3885 950.8004 191.3885 C953.0096 191.3885 954.8004 193.1794 954.8004 195.3885 C954.8004 197.5976 953.0096 199.3885 950.8004 199.3885 Z" stroke="none" clip-path="url(#clipPath2)"/>
    </g>
    <g stroke-linecap="butt" transform="matrix(1,0,0,1,292,173)" fill="green" text-rendering="geometricPrecision" shape-rendering="geometricPrecision" stroke="green" stroke-miterlimit="1.45">
      <path fill="none" d="M950.8004 199.3885 C948.5912 199.3885 946.8004 197.5976 946.8004 195.3885 C946.8004 193.1794 948.5912 191.3885 950.8004 191.3885 C953.0096 191.3885 954.8004 193.1794 954.8004 195.3885 C954.8004 197.5976 953.0096 199.3885 950.8004 199.3885 Z" clip-path="url(#clipPath2)"/>
      <path fill="white" d="M950.8004 87.9061 L944.8004 103.9061 L956.8004 103.9061 Z" clip-path="url(#clipPath2)" stroke="none"/>
      <path fill="none" d="M950.8004 87.9061 L944.8004 103.9061 L956.8004 103.9061 Z" clip-path="url(#clipPath2)"/>
      <rect x="811.2067" y="130.2252" clip-path="url(#clipPath2)" fill="white" width="279.1875" height="22.8438" stroke="none"/>
      <text x="813.2067" font-size="16px" y="147.6939" clip-path="url(#clipPath2)" font-family="sans-serif" stroke="none" xml:space="preserve">edtfo:hasEDTFDateTimeDescription</text>
      <path fill="none" d="M950.8004 -58.5944 L950.8004 29.888" clip-path="url(#clipPath2)"/>
    </g>
    <g stroke-linecap="butt" transform="matrix(1,0,0,1,292,173)" fill-opacity="0" fill="rgb(0,0,0)" text-rendering="geometricPrecision" shape-rendering="geometricPrecision" stroke="rgb(0,0,0)" stroke-opacity="0" stroke-miterlimit="1.45">
      <path d="M950.8004 -66.5944 C953.0096 -66.5944 954.8004 -64.8035 954.8004 -62.5944 C954.8004 -60.3853 953.0096 -58.5944 950.8004 -58.5944 C948.5912 -58.5944 946.8004 -60.3853 946.8004 -62.5944 C946.8004 -64.8035 948.5912 -66.5944 950.8004 -66.5944 Z" stroke="none" clip-path="url(#clipPath2)"/>
    </g>
    <g stroke-linecap="butt" transform="matrix(1,0,0,1,292,173)" fill="green" text-rendering="geometricPrecision" shape-rendering="geometricPrecision" stroke="green" stroke-miterlimit="1.45">
      <path fill="none" d="M950.8004 -66.5944 C953.0096 -66.5944 954.8004 -64.8035 954.8004 -62.5944 C954.8004 -60.3853 953.0096 -58.5944 950.8004 -58.5944 C948.5912 -58.5944 946.8004 -60.3853 946.8004 -62.5944 C946.8004 -64.8035 948.5912 -66.5944 950.8004 -66.5944 Z" clip-path="url(#clipPath2)"/>
      <path fill="white" d="M950.8004 44.888 L956.8004 28.888 L944.8004 28.888 Z" clip-path="url(#clipPath2)" stroke="none"/>
      <path fill="none" d="M950.8004 44.888 L956.8004 28.888 L944.8004 28.888 Z" clip-path="url(#clipPath2)"/>
      <rect x="861.82" y="-20.2748" clip-path="url(#clipPath2)" fill="white" width="177.9609" height="22.8438" stroke="none"/>
      <text x="863.8199" font-size="16px" y="-2.8061" clip-path="url(#clipPath2)" font-family="sans-serif" stroke="none" xml:space="preserve">edtfo:inEDTFDateTime</text>
      <path fill="none" d="M526.9485 66.397 L879.0547 66.397" clip-path="url(#clipPath2)"/>
    </g>
    <g stroke-linecap="butt" transform="matrix(1,0,0,1,292,173)" fill-opacity="0" fill="rgb(0,0,0)" text-rendering="geometricPrecision" shape-rendering="geometricPrecision" stroke="rgb(0,0,0)" stroke-opacity="0" stroke-miterlimit="1.45">
      <path d="M518.9485 66.397 C518.9485 64.1879 520.7393 62.397 522.9485 62.397 C525.1577 62.397 526.9485 64.1879 526.9485 66.397 C526.9485 68.6062 525.1577 70.397 522.9485 70.397 C520.7393 70.397 518.9485 68.6062 518.9485 66.397 Z" stroke="none" clip-path="url(#clipPath2)"/>
    </g>
    <g stroke-linecap="butt" transform="matrix(1,0,0,1,292,173)" fill="green" text-rendering="geometricPrecision" shape-rendering="geometricPrecision" stroke="green" stroke-miterlimit="1.45">
      <path fill="none" d="M518.9485 66.397 C518.9485 64.1879 520.7393 62.397 522.9485 62.397 C525.1577 62.397 526.9485 64.1879 526.9485 66.397 C526.9485 68.6062 525.1577 70.397 522.9485 70.397 C520.7393 70.397 518.9485 68.6062 518.9485 66.397 Z" clip-path="url(#clipPath2)"/>
      <path fill="white" d="M894.0547 66.397 L878.0547 60.397 L878.0547 72.397 Z" clip-path="url(#clipPath2)" stroke="none"/>
      <path fill="none" d="M894.0547 66.397 L878.0547 60.397 L878.0547 72.397 Z" clip-path="url(#clipPath2)"/>
      <rect x="554.0005" y="54.9752" clip-path="url(#clipPath2)" fill="white" width="302.7031" height="22.8438" stroke="none"/>
      <text x="556.0005" font-size="16px" y="72.4439" clip-path="url(#clipPath2)" font-family="sans-serif" stroke="none" xml:space="preserve">edtfo:hasEDTFDateTimeSetDescription</text>
      <path fill="none" d="M-121.4768 302.1136 L-121.4768 149.7944" clip-path="url(#clipPath2)" stroke="black"/>
      <path fill="black" d="M-121.4768 141.7944 L-126.4768 153.7944 L-121.4768 150.7944 L-116.4768 153.7944 Z" clip-path="url(#clipPath2)" stroke="none"/>
      <rect x="-184.9924" y="210.5145" clip-path="url(#clipPath2)" fill="white" width="127.0312" height="22.8438" stroke="none"/>
    </g>
    <g font-size="16px" stroke-linecap="butt" transform="matrix(1,0,0,1,292,173)" text-rendering="geometricPrecision" font-family="sans-serif" shape-rendering="geometricPrecision" stroke-miterlimit="1.45">
      <text x="-182.9924" xml:space="preserve" y="227.9833" clip-path="url(#clipPath2)" stroke="none">rdfs:subClassOf</text>
    </g>
    <g stroke-linecap="butt" transform="matrix(1,0,0,1,292,173)" fill="navy" text-rendering="geometricPrecision" shape-rendering="geometricPrecision" stroke="navy" stroke-miterlimit="1.45">
      <path fill="none" d="M27.3616 324.1162 L233.3444 324.1162" clip-path="url(#clipPath2)"/>
      <path d="M19.3616 324.1162 C19.3616 321.907 21.1525 320.1162 23.3616 320.1162 C25.5708 320.1162 27.3616 321.907 27.3616 324.1162 C27.3616 326.3253 25.5708 328.1162 23.3616 328.1162 C21.1525 328.1162 19.3616 326.3253 19.3616 324.1162 Z" clip-path="url(#clipPath2)" stroke="none"/>
      <path d="M244.3444 324.1162 L232.3444 318.1162 L232.3444 330.1162 Z" clip-path="url(#clipPath2)" stroke="none"/>
      <rect x="48.2886" y="312.6943" clip-path="url(#clipPath2)" fill="white" width="171.1562" height="22.8438" stroke="none"/>
      <text x="50.2886" font-size="16px" y="330.1631" clip-path="url(#clipPath2)" font-family="sans-serif" stroke="none" xml:space="preserve">edtfo:yearSubdivision</text>
      <path fill="none" d="M611.1966 265.6613 L429.1345 303.8979" clip-path="url(#clipPath2)" stroke="black"/>
      <path fill="black" d="M421.3053 305.5422 L434.0768 307.9691 L430.1131 303.6924 L432.0214 298.1826 Z" clip-path="url(#clipPath2)" stroke="none"/>
      <rect x="452.7383" y="274.1793" clip-path="url(#clipPath2)" fill="white" width="127.0312" height="22.8438" stroke="none"/>
    </g>
    <g font-size="16px" stroke-linecap="butt" transform="matrix(1,0,0,1,292,173)" text-rendering="geometricPrecision" font-family="sans-serif" shape-rendering="geometricPrecision" stroke-miterlimit="1.45">
      <text x="454.7383" xml:space="preserve" y="291.648" clip-path="url(#clipPath2)" stroke="none">rdfs:subClassOf</text>
      <path fill="none" d="M611.1268 306.2504 L429.3346 317.9224" clip-path="url(#clipPath2)"/>
      <path d="M421.351 318.435 L433.6467 322.6558 L430.3325 317.8583 L433.006 312.6764 Z" stroke="none" clip-path="url(#clipPath2)"/>
    </g>
    <g stroke-linecap="butt" transform="matrix(1,0,0,1,292,173)" fill="white" text-rendering="geometricPrecision" shape-rendering="geometricPrecision" stroke="white" stroke-miterlimit="1.45">
      <rect x="452.7383" width="127.0312" height="22.8438" y="300.9198" clip-path="url(#clipPath2)" stroke="none"/>
    </g>
    <g font-size="16px" stroke-linecap="butt" transform="matrix(1,0,0,1,292,173)" text-rendering="geometricPrecision" font-family="sans-serif" shape-rendering="geometricPrecision" stroke-miterlimit="1.45">
      <text x="454.7383" xml:space="preserve" y="318.3886" clip-path="url(#clipPath2)" stroke="none">rdfs:subClassOf</text>
      <path fill="none" d="M611.1625 345.2049 L429.3395 331.4268" clip-path="url(#clipPath2)"/>
      <path d="M421.3623 330.8223 L432.9502 336.7147 L430.3366 331.5023 L433.7058 326.7433 Z" stroke="none" clip-path="url(#clipPath2)"/>
    </g>
    <g stroke-linecap="butt" transform="matrix(1,0,0,1,292,173)" fill="white" text-rendering="geometricPrecision" shape-rendering="geometricPrecision" stroke="white" stroke-miterlimit="1.45">
      <rect x="452.7383" width="127.0312" height="22.8438" y="326.5911" clip-path="url(#clipPath2)" stroke="none"/>
    </g>
    <g font-size="16px" stroke-linecap="butt" transform="matrix(1,0,0,1,292,173)" text-rendering="geometricPrecision" font-family="sans-serif" shape-rendering="geometricPrecision" stroke-miterlimit="1.45">
      <text x="454.7383" xml:space="preserve" y="344.0598" clip-path="url(#clipPath2)" stroke="none">rdfs:subClassOf</text>
      <path fill="none" d="M614.7459 386.2835 L428.8689 345.2892" clip-path="url(#clipPath2)"/>
      <path d="M421.0567 343.5663 L431.6982 351.0334 L429.8455 345.5046 L433.8519 341.268 Z" stroke="none" clip-path="url(#clipPath2)"/>
    </g>
    <g stroke-linecap="butt" transform="matrix(1,0,0,1,292,173)" fill="white" text-rendering="geometricPrecision" shape-rendering="geometricPrecision" stroke="white" stroke-miterlimit="1.45">
      <rect x="454.52" width="127.0312" height="22.8438" y="353.5327" clip-path="url(#clipPath2)" stroke="none"/>
    </g>
    <g font-size="16px" stroke-linecap="butt" transform="matrix(1,0,0,1,292,173)" text-rendering="geometricPrecision" font-family="sans-serif" shape-rendering="geometricPrecision" stroke-miterlimit="1.45">
      <text x="456.52" xml:space="preserve" y="371.0014" clip-path="url(#clipPath2)" stroke="none">rdfs:subClassOf</text>
      <path fill="none" d="M-121.4768 -62.6004 L-121.4768 89.7188" clip-path="url(#clipPath2)"/>
      <path d="M-121.4768 97.7188 L-116.4768 85.7188 L-121.4768 88.7188 L-126.4768 85.7188 Z" stroke="none" clip-path="url(#clipPath2)"/>
    </g>
    <g stroke-linecap="butt" transform="matrix(1,0,0,1,292,173)" fill="white" text-rendering="geometricPrecision" shape-rendering="geometricPrecision" stroke="white" stroke-miterlimit="1.45">
      <rect x="-184.9924" width="127.0312" height="22.8438" y="6.155" clip-path="url(#clipPath2)" stroke="none"/>
    </g>
    <g font-size="16px" stroke-linecap="butt" transform="matrix(1,0,0,1,292,173)" text-rendering="geometricPrecision" font-family="sans-serif" shape-rendering="geometricPrecision" stroke-miterlimit="1.45">
      <text x="-182.9924" xml:space="preserve" y="23.6237" clip-path="url(#clipPath2)" stroke="none">rdfs:subClassOf</text>
      <path fill="none" d="M232.0244 -123.3683 L41.3481 -102.4585" clip-path="url(#clipPath2)"/>
      <path d="M33.3957 -101.5864 L45.8693 -97.9243 L42.3421 -102.5675 L44.7792 -107.8647 Z" stroke="none" clip-path="url(#clipPath2)"/>
    </g>
    <g stroke-linecap="butt" transform="matrix(1,0,0,1,292,173)" fill="white" text-rendering="geometricPrecision" shape-rendering="geometricPrecision" stroke="white" stroke-miterlimit="1.45">
      <rect x="69.2159" width="127.0312" height="22.8438" y="-123.9016" clip-path="url(#clipPath2)" stroke="none"/>
    </g>
    <g font-size="16px" stroke-linecap="butt" transform="matrix(1,0,0,1,292,173)" text-rendering="geometricPrecision" font-family="sans-serif" shape-rendering="geometricPrecision" stroke-miterlimit="1.45">
      <text x="71.2159" xml:space="preserve" y="-106.4328" clip-path="url(#clipPath2)" stroke="none">rdfs:subClassOf</text>
      <path fill="none" d="M232.0244 -84.603 L41.3957 -84.603" clip-path="url(#clipPath2)"/>
      <path d="M33.3957 -84.603 L45.3957 -79.603 L42.3957 -84.603 L45.3957 -89.603 Z" stroke="none" clip-path="url(#clipPath2)"/>
    </g>
    <g stroke-linecap="butt" transform="matrix(1,0,0,1,292,173)" fill="white" text-rendering="geometricPrecision" shape-rendering="geometricPrecision" stroke="white" stroke-miterlimit="1.45">
      <rect x="69.2159" width="127.0312" height="22.8438" y="-96.0248" clip-path="url(#clipPath2)" stroke="none"/>
    </g>
    <g font-size="16px" stroke-linecap="butt" transform="matrix(1,0,0,1,292,173)" text-rendering="geometricPrecision" font-family="sans-serif" shape-rendering="geometricPrecision" stroke-miterlimit="1.45">
      <text x="71.2159" xml:space="preserve" y="-78.5561" clip-path="url(#clipPath2)" stroke="none">rdfs:subClassOf</text>
      <path fill="none" d="M232.056 -47.0041 L41.3647 -67.2845" clip-path="url(#clipPath2)"/>
      <path d="M33.4096 -68.1305 L44.8135 -61.8895 L42.3591 -67.1787 L45.8711 -71.8334 Z" stroke="none" clip-path="url(#clipPath2)"/>
    </g>
    <g stroke-linecap="butt" transform="matrix(1,0,0,1,292,173)" fill="white" text-rendering="geometricPrecision" shape-rendering="geometricPrecision" stroke="white" stroke-miterlimit="1.45">
      <rect x="69.2159" width="127.0312" height="22.8438" y="-68.9893" clip-path="url(#clipPath2)" stroke="none"/>
    </g>
    <g font-size="16px" stroke-linecap="butt" transform="matrix(1,0,0,1,292,173)" text-rendering="geometricPrecision" font-family="sans-serif" shape-rendering="geometricPrecision" stroke-miterlimit="1.45">
      <text x="71.2159" xml:space="preserve" y="-51.5206" clip-path="url(#clipPath2)" stroke="none">rdfs:subClassOf</text>
    </g>
    <g stroke-linecap="butt" transform="matrix(1,0,0,1,292,173)" fill="green" text-rendering="geometricPrecision" shape-rendering="geometricPrecision" stroke="green" stroke-miterlimit="1.45">
      <path fill="none" d="M461.0258 -135.7037 L618.9143 -135.7037 L687.9176 -109.3962" clip-path="url(#clipPath2)"/>
    </g>
    <g stroke-linecap="butt" transform="matrix(1,0,0,1,292,173)" fill-opacity="0" fill="rgb(0,0,0)" text-rendering="geometricPrecision" shape-rendering="geometricPrecision" stroke="rgb(0,0,0)" stroke-opacity="0" stroke-miterlimit="1.45">
      <path d="M453.0258 -135.7037 C453.0258 -137.9128 454.8166 -139.7037 457.0258 -139.7037 C459.2349 -139.7037 461.0258 -137.9128 461.0258 -135.7037 C461.0258 -133.4945 459.2349 -131.7037 457.0258 -131.7037 C454.8166 -131.7037 453.0258 -133.4945 453.0258 -135.7037 Z" stroke="none" clip-path="url(#clipPath2)"/>
    </g>
    <g stroke-linecap="butt" transform="matrix(1,0,0,1,292,173)" fill="green" text-rendering="geometricPrecision" shape-rendering="geometricPrecision" stroke="green" stroke-miterlimit="1.45">
      <path fill="none" d="M453.0258 -135.7037 C453.0258 -137.9128 454.8166 -139.7037 457.0258 -139.7037 C459.2349 -139.7037 461.0258 -137.9128 461.0258 -135.7037 C461.0258 -133.4945 459.2349 -131.7037 457.0258 -131.7037 C454.8166 -131.7037 453.0258 -133.4945 453.0258 -135.7037 Z" clip-path="url(#clipPath2)"/>
      <path fill="white" d="M701.9335 -104.0527 L689.1206 -115.3588 L684.8458 -104.1461 Z" clip-path="url(#clipPath2)" stroke="none"/>
      <path fill="none" d="M701.9335 -104.0527 L689.1206 -115.3588 L684.8458 -104.1461 Z" clip-path="url(#clipPath2)"/>
      <rect x="490.1461" y="-147.1255" clip-path="url(#clipPath2)" fill="white" width="104.7422" height="22.8438" stroke="none"/>
      <text x="492.1461" font-size="16px" y="-129.6568" clip-path="url(#clipPath2)" font-family="sans-serif" stroke="none" xml:space="preserve">edtfo:decade</text>
      <path fill="none" d="M461.041 -84.603 L681.2023 -84.603" clip-path="url(#clipPath2)"/>
    </g>
    <g stroke-linecap="butt" transform="matrix(1,0,0,1,292,173)" fill-opacity="0" fill="rgb(0,0,0)" text-rendering="geometricPrecision" shape-rendering="geometricPrecision" stroke="rgb(0,0,0)" stroke-opacity="0" stroke-miterlimit="1.45">
      <path d="M453.041 -84.603 C453.041 -86.8121 454.8318 -88.603 457.041 -88.603 C459.2501 -88.603 461.041 -86.8121 461.041 -84.603 C461.041 -82.3938 459.2501 -80.603 457.041 -80.603 C454.8318 -80.603 453.041 -82.3938 453.041 -84.603 Z" stroke="none" clip-path="url(#clipPath2)"/>
    </g>
    <g stroke-linecap="butt" transform="matrix(1,0,0,1,292,173)" fill="green" text-rendering="geometricPrecision" shape-rendering="geometricPrecision" stroke="green" stroke-miterlimit="1.45">
      <path fill="none" d="M453.041 -84.603 C453.041 -86.8121 454.8318 -88.603 457.041 -88.603 C459.2501 -88.603 461.041 -86.8121 461.041 -84.603 C461.041 -82.3938 459.2501 -80.603 457.041 -80.603 C454.8318 -80.603 453.041 -82.3938 453.041 -84.603 Z" clip-path="url(#clipPath2)"/>
      <path fill="white" d="M696.2023 -84.603 L680.2023 -90.603 L680.2023 -78.603 Z" clip-path="url(#clipPath2)" stroke="none"/>
      <path fill="none" d="M696.2023 -84.603 L680.2023 -90.603 L680.2023 -78.603 Z" clip-path="url(#clipPath2)"/>
      <rect x="519.6477" y="-96.0248" clip-path="url(#clipPath2)" fill="white" width="107.6016" height="22.8438" stroke="none"/>
      <text x="521.6477" font-size="16px" y="-78.5561" clip-path="url(#clipPath2)" font-family="sans-serif" stroke="none" xml:space="preserve">edtfo:century</text>
      <path fill="none" d="M489.9934 -33.5022 L660.0934 -33.5022 L700.7476 -55.8752" clip-path="url(#clipPath2)"/>
    </g>
    <g stroke-linecap="butt" transform="matrix(1,0,0,1,292,173)" fill-opacity="0" fill="rgb(0,0,0)" text-rendering="geometricPrecision" shape-rendering="geometricPrecision" stroke="rgb(0,0,0)" stroke-opacity="0" stroke-miterlimit="1.45">
      <path d="M481.9934 -33.5022 C481.9934 -35.7114 483.7843 -37.5022 485.9934 -37.5022 C488.2025 -37.5022 489.9934 -35.7114 489.9934 -33.5022 C489.9934 -31.2931 488.2025 -29.5022 485.9934 -29.5022 C483.7843 -29.5022 481.9934 -31.2931 481.9934 -33.5022 Z" stroke="none" clip-path="url(#clipPath2)"/>
    </g>
    <g stroke-linecap="butt" transform="matrix(1,0,0,1,292,173)" fill="green" text-rendering="geometricPrecision" shape-rendering="geometricPrecision" stroke="green" stroke-miterlimit="1.45">
      <path fill="none" d="M481.9934 -33.5022 C481.9934 -35.7114 483.7843 -37.5022 485.9934 -37.5022 C488.2025 -37.5022 489.9934 -35.7114 489.9934 -33.5022 C489.9934 -31.2931 488.2025 -29.5022 485.9934 -29.5022 C483.7843 -29.5022 481.9934 -31.2931 481.9934 -33.5022 Z" clip-path="url(#clipPath2)"/>
      <path fill="white" d="M713.8891 -63.1072 L696.9788 -60.6496 L702.7643 -50.1365 Z" clip-path="url(#clipPath2)" stroke="none"/>
      <path fill="none" d="M713.8891 -63.1072 L696.9788 -60.6496 L702.7643 -50.1365 Z" clip-path="url(#clipPath2)"/>
      <rect x="509.1966" y="-44.9241" clip-path="url(#clipPath2)" fill="white" width="136.8203" height="22.8438" stroke="none"/>
      <text x="511.1966" font-size="16px" y="-27.4554" clip-path="url(#clipPath2)" font-family="sans-serif" stroke="none" xml:space="preserve">edtfo:millennium</text>
      <path fill="none" d="M240.8385 109.0931 L240.8385 70.3173" clip-path="url(#clipPath2)" stroke="black"/>
      <path fill="black" d="M240.8385 62.3173 L235.8385 74.3173 L240.8385 71.3173 L245.8385 74.3173 Z" clip-path="url(#clipPath2)" stroke="none"/>
      <rect x="177.3228" y="74.3045" clip-path="url(#clipPath2)" fill="white" width="127.0312" height="22.8438" stroke="none"/>
    </g>
    <g font-size="16px" stroke-linecap="butt" transform="matrix(1,0,0,1,292,173)" text-rendering="geometricPrecision" font-family="sans-serif" shape-rendering="geometricPrecision" stroke-miterlimit="1.45">
      <text x="179.3228" xml:space="preserve" y="91.7732" clip-path="url(#clipPath2)" stroke="none">rdfs:subClassOf</text>
      <path fill="none" d="M143.6278 199.922 L203.2416 157.7355" clip-path="url(#clipPath2)"/>
      <path d="M209.7719 153.1143 L197.0882 155.9648 L202.4253 158.3132 L202.8647 164.1276 Z" stroke="none" clip-path="url(#clipPath2)"/>
    </g>
    <g stroke-linecap="butt" transform="matrix(1,0,0,1,292,173)" fill="white" text-rendering="geometricPrecision" shape-rendering="geometricPrecision" stroke="white" stroke-miterlimit="1.45">
      <rect x="113.1632" width="127.0312" height="22.8438" y="165.1112" clip-path="url(#clipPath2)" stroke="none"/>
    </g>
    <g font-size="16px" stroke-linecap="butt" transform="matrix(1,0,0,1,292,173)" text-rendering="geometricPrecision" font-family="sans-serif" shape-rendering="geometricPrecision" stroke-miterlimit="1.45">
      <text x="115.1632" xml:space="preserve" y="182.5799" clip-path="url(#clipPath2)" stroke="none">rdfs:subClassOf</text>
      <path fill="none" d="M347.7684 199.922 L281.7391 157.4427" clip-path="url(#clipPath2)"/>
      <path d="M275.0112 153.1143 L282.3979 163.8118 L282.5801 157.9837 L287.8083 155.4019 Z" stroke="none" clip-path="url(#clipPath2)"/>
    </g>
    <g stroke-linecap="butt" transform="matrix(1,0,0,1,292,173)" fill="white" text-rendering="geometricPrecision" shape-rendering="geometricPrecision" stroke="white" stroke-miterlimit="1.45">
      <rect x="247.8973" width="127.0312" height="22.8438" y="165.1112" clip-path="url(#clipPath2)" stroke="none"/>
    </g>
    <g font-size="16px" stroke-linecap="butt" transform="matrix(1,0,0,1,292,173)" text-rendering="geometricPrecision" font-family="sans-serif" shape-rendering="geometricPrecision" stroke-miterlimit="1.45">
      <text x="249.8973" xml:space="preserve" y="182.5799" clip-path="url(#clipPath2)" stroke="none">rdfs:subClassOf</text>
    </g>
  </g>
</svg>
